<?xml version="1.0" standalone="no"?>
<!DOCTYPE svg PUBLIC "-//W3C//DTD SVG 20010904//EN"
 "http://www.w3.org/TR/2001/REC-SVG-20010904/DTD/svg10.dtd">
<svg version="1.0" xmlns="http://www.w3.org/2000/svg"
 width="1017.000000pt" height="1017.000000pt" viewBox="0 0 1017.000000 1017.000000"
 preserveAspectRatio="xMidYMid meet">
<metadata>
Created by potrace 1.11, written by Peter Selinger 2001-2013
</metadata>
<g transform="translate(0.000000,1017.000000) scale(0.100000,-0.100000)"
fill="#000000" stroke="none">
<path d="M4812 10158 c-125 -19 -177 -99 -128 -202 25 -53 42 -106 34 -106 -3
0 -16 9 -29 21 -79 69 -205 137 -308 166 -80 22 -258 26 -356 7 -44 -8 -93
-17 -110 -20 -94 -18 -552 -184 -820 -299 -290 -124 -423 -192 -444 -226 -20
-32 -18 -61 5 -80 11 -9 9 -18 -17 -50 -71 -90 -100 -224 -94 -434 2 -82 6
-159 9 -171 2 -12 7 -45 11 -75 3 -30 8 -61 10 -69 2 -8 7 -35 10 -60 3 -25
13 -85 21 -135 25 -157 29 -197 29 -325 -1 -195 -22 -287 -163 -690 -56 -158
-100 -305 -108 -360 -3 -19 -8 -38 -9 -41 -2 -3 -7 -28 -11 -55 -3 -27 -8 -52
-9 -55 -9 -13 -19 -206 -19 -339 0 -128 9 -296 18 -347 5 -24 15 -89 22 -138
15 -108 73 -348 121 -500 77 -244 158 -442 289 -710 159 -327 375 -677 613
-995 99 -132 185 -222 233 -243 209 -94 230 -108 253 -161 l13 -30 25 28 c32
35 40 84 31 188 -15 174 -4 229 57 282 31 26 103 58 159 71 3 1 23 5 45 10 77
15 144 46 173 80 16 18 31 38 33 43 2 6 33 12 69 13 134 5 258 45 368 119 57
38 67 49 68 76 2 39 29 81 65 100 16 8 29 16 29 18 0 2 -18 43 -40 91 -22 48
-40 88 -40 90 0 3 91 -27 340 -115 285 -100 289 -101 343 -101 62 0 113 30
195 113 68 70 140 118 223 149 160 59 359 41 503 -46 32 -19 61 -35 65 -35 3
0 21 25 40 56 32 53 34 55 52 38 89 -80 148 -268 143 -456 -1 -73 -18 -235
-30 -293 -27 -126 -10 -204 47 -221 44 -14 80 -2 148 49 277 206 471 598 676
1362 31 118 89 399 109 530 9 62 18 121 21 135 2 8 6 42 10 75 4 33 8 74 10
90 3 17 7 57 10 90 4 33 8 78 10 101 19 186 24 651 10 849 -4 55 -8 110 -8
123 -1 12 -3 22 -6 23 -4 0 -15 2 -25 4 -58 11 -114 -66 -122 -168 -8 -112
-15 -142 -35 -167 l-20 -25 -17 25 c-9 14 -38 46 -64 73 -186 186 -499 228
-726 96 -30 -17 -51 -33 -48 -36 3 -3 20 -7 38 -9 98 -10 138 -15 159 -19 13
-3 38 -8 54 -11 52 -9 163 -51 212 -80 97 -56 177 -158 208 -263 l7 -23 -158
7 c-88 4 -179 8 -204 10 -25 1 -107 5 -183 9 -76 4 -157 9 -180 11 -23 2 -91
7 -152 10 -60 4 -123 8 -140 10 -16 2 -75 7 -130 10 -55 3 -116 8 -135 10 -19
2 -74 6 -121 10 -47 3 -96 7 -110 9 -13 3 -46 7 -74 11 -53 7 -120 37 -146 65
-74 76 -72 216 4 316 62 82 154 135 372 216 195 73 306 106 480 144 148 32
384 46 530 32 132 -14 308 -72 407 -134 43 -27 43 -27 53 66 3 30 8 66 10 80
5 29 14 114 20 180 3 25 7 61 10 80 12 86 40 420 50 600 13 225 17 313 20 495
4 278 -15 393 -75 453 -15 16 -68 52 -117 81 -126 74 -135 93 -119 253 8 72 6
80 -20 127 -15 29 -70 92 -128 148 -241 232 -304 267 -402 224 -70 -31 -263
-165 -353 -246 l-34 -30 20 30 c43 64 56 103 51 164 -7 95 -75 163 -153 152
-34 -5 -69 -28 -126 -81 -81 -76 -94 -81 -207 -78 -113 3 -158 -13 -233 -83
-24 -22 -61 -56 -81 -75 -52 -47 -110 -76 -144 -70 -16 2 -35 5 -43 5 -17 1
-9 46 27 155 18 56 23 83 15 95 -25 41 -311 107 -543 126 -129 11 -144 11
-198 3z m-1090 -2616 c8 -31 648 -256 1085 -383 156 -45 180 -54 161 -63 -32
-17 -55 -71 -73 -176 -9 -57 -25 -111 -40 -135 -24 -42 -85 -92 -121 -100 -10
-2 -34 -8 -53 -14 -34 -11 -171 -9 -367 4 -78 5 -128 4 -165 -5 -63 -14 -132
-51 -153 -81 -28 -40 -100 -4 -112 56 -6 32 -6 32 -41 22 -21 -7 -44 -24 -55
-42 l-20 -30 -132 2 c-125 2 -195 -4 -371 -32 -66 -11 -148 -13 -211 -5 -70 9
-186 59 -235 102 -14 13 -44 39 -65 58 -114 102 -285 350 -241 350 13 0 29 24
40 61 3 9 -1 29 -9 44 -8 15 -13 28 -12 29 2 1 17 11 35 23 53 38 283 149 383
186 178 66 414 120 580 134 41 3 76 6 77 7 1 1 26 3 56 4 45 1 56 -2 59 -16z"/>
<path d="M3265 7103 c-27 -8 -72 -15 -100 -15 -32 1 -56 -5 -68 -16 -10 -8
-37 -18 -60 -21 -38 -5 -42 -9 -45 -36 -1 -17 6 -44 18 -63 24 -39 99 -77 132
-67 11 4 26 8 32 9 6 1 29 11 51 23 68 35 127 51 215 58 130 10 157 14 196 30
43 18 38 27 -27 60 -106 54 -243 69 -344 38z"/>
<path d="M6270 4158 c-19 -4 -51 -10 -70 -13 -75 -13 -227 -58 -258 -77 -21
-13 -35 -31 -39 -49 l-5 -29 -27 19 c-103 72 -262 47 -332 -53 -30 -42 -33
-44 -53 -30 -34 23 -93 17 -175 -20 -104 -47 -120 -49 -203 -20 -48 17 -82 24
-104 19 -68 -12 -412 -215 -546 -322 -70 -56 -98 -94 -98 -137 0 -21 5 -24 34
-24 19 0 44 -7 55 -15 20 -13 19 -15 -41 -53 -35 -21 -78 -47 -97 -57 -19 -11
-63 -38 -98 -62 l-64 -42 38 -33 c38 -33 114 -71 210 -105 l51 -18 -89 -118
c-90 -120 -107 -161 -76 -187 21 -18 69 -20 117 -6 25 8 46 14 47 14 1 0 -6
-14 -15 -32 -55 -110 -49 -313 10 -368 28 -26 79 -26 103 0 14 15 21 17 38 9
11 -6 37 -9 58 -6 37 5 39 4 39 -23 0 -67 72 -130 139 -123 36 3 80 27 94 50
11 18 25 16 32 -5 6 -21 45 -42 77 -42 41 0 85 39 117 103 16 34 30 56 31 48
1 -49 103 -120 180 -125 45 -3 48 4 22 42 -10 15 -26 47 -36 72 -16 43 -16 44
1 24 22 -26 55 -44 82 -44 16 0 22 12 35 73 22 104 27 141 31 239 3 76 1 91
-17 114 -19 24 -25 26 -77 21 -66 -6 -79 -1 -152 69 -58 55 -91 70 -134 61
l-25 -4 19 31 c35 56 127 92 281 111 54 6 96 13 130 21 44 10 64 15 87 20 13
2 80 22 150 44 71 22 135 42 143 44 37 10 288 99 324 115 23 10 79 33 125 52
146 59 220 154 227 290 2 53 -2 76 -21 117 -59 128 -206 194 -348 156 -29 -8
-53 -14 -55 -14 -1 0 55 46 125 103 133 106 149 129 113 162 -21 19 -64 24
-110 13z"/>
<path d="M2923 3107 c-12 -25 -48 -153 -58 -202 -3 -16 -13 -66 -22 -110 -17
-87 -24 -395 -11 -498 47 -364 284 -727 757 -1157 52 -47 99 -90 105 -95 6 -6
38 -33 71 -60 33 -28 65 -55 71 -61 84 -78 455 -362 638 -489 322 -223 629
-371 854 -411 12 -2 34 -7 50 -10 47 -10 281 -11 334 -2 91 17 221 59 308 99
305 143 623 450 750 726 87 188 105 342 86 763 -10 229 -18 336 -31 440 -8 61
-17 125 -19 135 -1 6 -8 37 -15 70 -31 150 -90 303 -130 339 -18 17 -21 16
-56 -23 -21 -22 -44 -49 -51 -59 -26 -38 -83 -159 -129 -277 -61 -156 -112
-242 -188 -319 -130 -132 -370 -256 -581 -302 -140 -31 -189 -37 -322 -39
-138 -2 -176 1 -332 29 -248 46 -634 234 -897 438 -5 5 -28 22 -50 39 -109 82
-330 269 -454 384 -72 66 -273 269 -334 336 -58 64 -237 249 -294 302 l-39 38
-11 -24z"/>
<path d="M6143 3007 c-131 -135 -177 -201 -175 -252 2 -38 17 -68 95 -183 53
-77 62 -83 58 -40 -1 11 7 18 25 20 39 4 51 28 38 77 -10 35 -9 39 5 32 75
-37 201 75 201 179 0 81 -36 168 -111 267 -17 23 -17 22 -136 -100z"/>
</g>
</svg>
